<?xml version="1.0" standalone="no"?>
<!DOCTYPE svg PUBLIC "-//W3C//DTD SVG 20010904//EN"
 "http://www.w3.org/TR/2001/REC-SVG-20010904/DTD/svg10.dtd">
<svg version="1.0" xmlns="http://www.w3.org/2000/svg"
 width="358.000000pt" height="380.000000pt" viewBox="0 0 358.000000 380.000000"
 preserveAspectRatio="xMidYMid meet">

<g transform="translate(0.000000,380.000000) scale(0.100000,-0.100000)"
fill="#000000" stroke="none">
<path d="M2365 3795 c-5 -2 -149 -6 -320 -9 -430 -7 -583 -28 -827 -117 -62
-23 -121 -42 -130 -42 -9 -1 -15 -4 -12 -8 6 -10 -26 -20 -38 -12 -7 4 -8 1
-3 -7 6 -10 4 -12 -9 -7 -9 4 -14 3 -11 -2 3 -5 -3 -12 -14 -16 -11 -3 -59
-31 -108 -62 -48 -31 -93 -56 -100 -56 -7 0 -10 -4 -8 -8 5 -7 -25 -23 -38
-20 -5 1 -6 -3 -3 -8 6 -9 -22 -26 -37 -22 -5 1 -6 -2 -3 -7 2 -4 -34 -41 -81
-82 -47 -41 -118 -113 -158 -162 -40 -48 -75 -85 -79 -83 -3 3 -4 2 -2 -1 3
-3 -21 -45 -52 -92 -60 -92 -182 -326 -182 -350 0 -7 -4 -10 -10 -7 -5 3 -8 0
-5 -7 5 -13 -39 -151 -46 -144 -2 3 -4 -5 -5 -17 -2 -40 -38 -206 -44 -202 -3
2 -4 -12 -2 -32 3 -21 1 -33 -5 -30 -6 4 -8 -16 -5 -50 3 -31 1 -53 -4 -50
-11 6 -10 -325 0 -342 4 -6 7 -26 5 -44 -1 -17 2 -40 6 -49 4 -10 4 -25 1 -34
-4 -9 -1 -23 5 -30 6 -8 9 -23 6 -34 -3 -11 -1 -20 5 -20 6 0 7 -11 4 -25 -4
-14 -2 -25 3 -25 8 0 16 -30 27 -95 1 -5 3 -13 4 -17 1 -5 3 -11 4 -15 1 -5 5
-14 9 -20 5 -7 6 -17 3 -22 -4 -5 -1 -11 4 -13 6 -2 12 -13 13 -26 0 -12 5
-22 10 -22 5 0 7 -7 3 -15 -3 -8 -1 -15 3 -15 11 0 33 -60 23 -60 -4 0 -2 -4
5 -8 6 -4 14 -19 16 -32 7 -35 29 -80 39 -80 5 0 6 -4 3 -10 -3 -5 -1 -10 5
-10 6 0 8 -5 5 -10 -3 -6 -1 -10 5 -10 6 0 9 -4 6 -9 -3 -4 3 -16 14 -26 11
-10 17 -22 14 -26 -3 -5 2 -12 10 -15 9 -3 13 -10 11 -15 -3 -5 3 -16 14 -26
11 -9 18 -20 15 -25 -3 -4 0 -8 5 -8 6 0 11 -7 11 -15 0 -8 3 -15 8 -15 4 0
16 -16 27 -36 11 -20 30 -43 42 -51 13 -9 23 -21 23 -27 0 -6 14 -24 31 -39
17 -15 27 -27 23 -27 -5 0 16 -25 46 -56 65 -66 254 -224 268 -224 6 0 12 -4
14 -9 4 -13 150 -102 244 -149 178 -89 410 -159 609 -183 146 -18 667 -18 790
-1 50 7 126 22 170 33 137 35 365 140 365 169 0 6 7 10 16 10 9 0 37 15 63 34
60 44 242 236 235 247 -3 5 -1 9 5 9 14 0 87 112 125 194 64 136 105 291 125
466 5 47 9 290 8 540 -2 385 -4 459 -17 478 l-15 23 -872 -2 c-479 -2 -870 -6
-867 -11 3 -4 0 -8 -6 -8 -6 0 -8 -5 -5 -10 4 -6 2 -17 -4 -24 -18 -22 -11
-1007 8 -1029 12 -15 58 -17 470 -17 525 0 554 -4 633 -78 l28 -26 -38 -22
c-126 -75 -168 -97 -248 -123 -136 -45 -241 -54 -580 -49 -281 5 -305 7 -396
31 -114 30 -231 79 -311 130 -32 20 -59 37 -62 37 -5 0 -36 29 -105 96 -25 25
-49 41 -54 37 -4 -4 -6 -3 -4 2 3 9 -49 79 -95 127 -9 10 -14 18 -10 18 5 0 3
4 -2 8 -6 4 -19 24 -30 44 -11 21 -23 38 -28 38 -4 0 -5 5 -2 10 3 6 1 10 -4
10 -6 0 -10 3 -9 8 3 8 -32 93 -42 102 -3 3 -6 12 -7 20 0 8 -9 43 -18 78 -9
34 -20 86 -25 115 -13 73 -19 336 -9 343 5 3 6 16 3 29 -3 12 -1 26 4 29 6 3
8 15 5 25 -3 10 0 22 5 25 6 3 8 15 5 26 -3 11 0 20 6 20 5 0 8 7 5 15 -4 8
-1 15 5 15 6 0 8 7 5 15 -4 8 -1 15 5 15 6 0 8 6 5 14 -3 7 2 20 10 29 8 8 13
17 10 20 -7 7 18 57 28 57 5 0 6 5 3 10 -3 6 -1 10 6 10 7 0 10 3 6 6 -8 9 21
64 33 64 6 0 9 3 9 8 -3 20 2 32 13 26 6 -4 8 -3 4 4 -7 12 91 138 106 134 5
-1 7 1 4 6 -7 12 68 84 78 75 4 -5 6 -3 4 3 -2 6 17 28 41 48 54 45 76 57 86
48 5 -4 5 -2 2 4 -7 12 105 78 117 69 3 -3 4 -2 1 1 -7 10 97 56 112 49 9 -3
11 0 7 7 -5 7 0 9 14 6 14 -4 20 -2 16 4 -5 7 2 9 19 6 15 -3 24 -2 22 2 -6
10 82 23 97 14 7 -4 8 -3 4 5 -6 9 99 11 467 9 261 -2 473 0 470 5 -2 4 1 7 7
7 6 0 8 5 5 10 -3 6 -1 10 5 10 6 0 8 5 5 10 -3 6 -1 10 5 10 6 0 8 5 5 10 -3
6 -1 10 5 10 6 0 8 5 5 10 -3 6 -2 10 3 10 6 0 13 7 16 16 4 10 2 13 -7 8 -6
-4 -5 1 4 12 16 19 30 48 35 73 1 8 8 17 14 21 7 4 11 10 10 14 -4 13 22 66
32 66 5 0 7 4 3 9 -3 5 1 16 9 24 8 8 12 17 9 21 -4 3 -1 6 6 6 7 0 9 5 6 10
-3 6 -1 10 5 10 6 0 8 5 5 10 -3 6 -1 10 5 10 6 0 8 5 5 10 -3 6 -1 10 5 10 6
0 9 4 5 9 -3 5 1 16 9 24 8 8 12 17 9 21 -4 3 -1 6 6 6 7 0 10 4 7 9 -4 5 -1
11 4 13 6 2 12 10 14 18 1 8 7 24 13 35 6 11 11 23 12 28 2 11 -33 44 -41 40
-5 -2 -8 1 -8 7 0 6 -4 8 -10 5 -5 -3 -10 -1 -10 5 0 6 -4 8 -10 5 -5 -3 -10
-2 -10 4 0 6 -7 8 -15 5 -8 -4 -15 -1 -15 5 0 6 -3 10 -7 10 -5 -1 -12 0 -18
1 -5 1 -14 3 -20 4 -38 7 -106 30 -110 36 -3 5 -14 6 -25 3 -11 -3 -20 -1 -20
4 0 6 -11 8 -25 5 -14 -2 -25 0 -25 5 0 5 -13 8 -30 5 -16 -2 -30 0 -30 5 0 5
-16 7 -36 5 -20 -3 -34 -1 -31 4 3 5 -20 7 -50 6 -39 -3 -53 -1 -49 7 7 11 1
13 -19 6z m-95 -2044 c110 -78 23 -251 -106 -209 -114 38 -108 201 9 228 39 9
64 4 97 -19z m517 -15 c75 -82 18 -196 -98 -196 -33 0 -47 6 -75 34 -28 28
-34 42 -34 75 0 85 50 135 130 127 35 -3 51 -11 77 -40z m468 22 c41 -18 68
-72 62 -120 -12 -86 -108 -134 -180 -89 -40 25 -57 58 -57 112 0 33 7 48 34
75 27 27 42 34 75 34 22 0 52 -5 66 -12z m-258 -880 c-3 -7 -5 -2 -5 12 0 14
2 19 5 13 2 -7 2 -19 0 -25z m10 -491 c-1 -84 -3 -13 -3 158 0 171 2 239 3
152 2 -87 2 -227 0 -310z"/>
</g>
</svg>
